Lexi Belle - Nurse Eager To Please 3D HQ Hardcore Red Cyan Glasses

Screenshots:

General
 Complete name : Lexi Belle - Nurse Eager To Please 3D.wmv
 Format : Windows Media
 File size : 3.20 GiB
 Duration : 33mn 36s
 Overall bit rate mode : Constant
 Overall bit rate : 13.6 Mbps
 Maximum Overall bit rate : 16.8 Mbps
 Encoded date : UTC 2011-10-02 00:59:19.796

Video
 Format : VC-1
 Format profile : MP@HL
 Codec ID : WMV3
 Codec ID/Info : Windows Media Video 9
 Codec ID/Hint : WMV3
 Description of the codec : Windows Media Video 9 ΓÇô Professional
 Duration : 33mn 36s
 Bit rate mode : Constant
 Bit rate : 16.5 Mbps
 Width : 1 280 pixels
 Height : 720 pixels
 Display aspect ratio : 16:9
 Frame rate : 29.970 fps
 Bit depth : 8 bits
 Scan type : Progressive
 Bits/(Pixel*Frame) : 0.599
 Stream size : 3.88 GiB
 Language : English (US)

Audio
 Format : WMA
 Format version : Version 2
 Codec ID : 161
 Codec ID/Info : Windows Media Audio
 Description of the codec : Windows Media Audio 9.2 ΓÇô 128 kbps, 44 kHz, stereo 1-pass CBR
 Duration : 33mn 36s
 Bit rate mode : Constant
 Bit rate : 128 Kbps
 Channel(s) : 2 channels
 Sampling rate : 44.1 KHz
 Bit depth : 16 bits
 Stream size : 30.8 MiB (1%)
 Language : English (US)